<svg xmlns="http://www.w3.org/2000/svg" xmlns:xlink="http://www.w3.org/1999/xlink" width="1920" zoomAndPan="magnify" viewBox="0 0 1440 809.999993" height="1080" preserveAspectRatio="xMidYMid meet" version="1.0"><path fill="#fefffe" d="M 816.359375 222.949219 C 831.332031 221.75 841.035156 228.21875 845.460938 242.351562 C 847.3125 267.949219 840.257812 290.882812 824.296875 311.144531 C 817.914062 318.921875 811.738281 326.859375 805.777344 334.957031 C 802.902344 335.828125 799.957031 336.121094 796.960938 335.835938 C 796.941406 332.648438 797.824219 329.707031 799.605469 327.019531 C 815.917969 308.527344 827.664062 287.359375 834.878906 263.519531 C 837.03125 253.828125 834.96875 245.300781 828.707031 237.941406 C 824.242188 235.433594 819.535156 234.847656 814.597656 236.179688 C 779.847656 248.425781 753.097656 270.472656 734.347656 302.324219 C 711.011719 341.722656 701.605469 384.058594 706.128906 429.324219 C 713.847656 452.738281 730.011719 463.027344 754.632812 460.191406 C 780.300781 453.53125 803.222656 441.773438 823.414062 424.914062 C 844.101562 405.398438 863.503906 384.824219 881.617188 363.179688 C 884.914062 361.441406 888.441406 360.558594 892.199219 360.53125 C 898.371094 361.601562 904.242188 363.070312 909.835938 364.941406 C 916.21875 356.570312 922.390625 348.046875 928.351562 339.367188 C 934.207031 331.796875 938.617188 332.382812 941.582031 341.128906 C 933.257812 358.949219 925.917969 377.175781 919.535156 395.808594 C 917.578125 402.136719 916.695312 408.601562 916.890625 415.210938 C 925.460938 413.28125 933.097656 409.457031 939.816406 403.746094 C 950.132812 394.304688 960.714844 385.191406 971.5625 376.40625 C 974.507812 370.464844 977.453125 364.585938 980.382812 358.769531 C 983.113281 357.089844 986.042969 356.5 989.199219 357.003906 C 989.464844 362.484375 988.582031 367.777344 986.554688 372.878906 C 976.394531 393.167969 969.339844 414.335938 965.390625 436.378906 C 973.449219 414.027344 986.09375 394.917969 1003.308594 379.054688 C 1008.019531 375.523438 1012.710938 375.523438 1017.417969 379.054688 C 1020.238281 386.792969 1024.949219 392.964844 1031.527344 397.574219 C 1048.019531 390.667969 1060.644531 379.496094 1069.445312 364.058594 C 1074.507812 358.410156 1080.097656 353.410156 1086.203125 349.066406 C 1093.398438 346.785156 1098.988281 348.84375 1102.957031 355.242188 C 1112.460938 342.789062 1121.28125 329.851562 1129.410156 316.433594 C 1140.488281 290.269531 1152.25 264.398438 1164.683594 238.824219 C 1168.5625 234.195312 1173.554688 232.429688 1179.675781 233.53125 C 1179.710938 236.285156 1180.292969 238.929688 1181.4375 241.46875 C 1180.558594 244.117188 1179.675781 246.761719 1178.792969 249.40625 C 1168.105469 272.554688 1156.941406 295.484375 1145.285156 318.199219 C 1125.074219 371.679688 1115.074219 426.949219 1115.300781 484.003906 C 1116.128906 494.386719 1117.59375 504.675781 1119.710938 514.871094 C 1116.855469 524.953125 1113.027344 525.25 1108.246094 515.753906 C 1106.5 510.597656 1105.335938 505.304688 1104.71875 499.878906 C 1103.539062 479.300781 1103.539062 458.722656 1104.71875 438.144531 C 1108.140625 409.398438 1113.433594 381.175781 1120.59375 353.476562 C 1110.011719 367.585938 1099.429688 381.699219 1088.847656 395.808594 C 1079.726562 407.273438 1069.445312 417.5625 1057.984375 426.679688 C 1051.6875 427.632812 1047.558594 424.988281 1045.636719 418.742188 C 1047.558594 413.53125 1048.441406 408.238281 1048.28125 402.867188 C 1030.734375 413.007812 1017.804688 408.894531 1009.480469 390.519531 C 1003.539062 395.871094 998.246094 401.75 993.609375 408.15625 C 983.167969 427.28125 973.167969 446.6875 963.625 466.367188 C 954.578125 474.457031 949.003906 472.398438 946.871094 460.191406 C 950.082031 440.625 954.492188 421.515625 960.097656 402.867188 C 948.722656 414.226562 935.496094 422.75 920.417969 428.441406 C 909.535156 430.785156 904.242188 426.375 904.542969 415.210938 C 905.832031 406.347656 906.710938 397.527344 907.1875 388.753906 C 895.195312 402.519531 882.550781 415.746094 869.269531 428.441406 C 856.253906 435.855469 849.480469 432.03125 848.988281 416.976562 C 821.105469 447.527344 786.710938 466.34375 745.8125 473.421875 C 717.4375 471.796875 700.09375 457.097656 693.785156 429.324219 C 689.929688 373.847656 704.039062 323.28125 736.113281 277.628906 C 756.929688 250.34375 783.679688 232.117188 816.359375 222.949219 Z M 1091.492188 358.769531 C 1094.492188 358.484375 1097.4375 358.777344 1100.3125 359.648438 C 1088.898438 375.707031 1076.855469 391.289062 1064.15625 406.394531 C 1062.972656 404.042969 1062.972656 401.6875 1064.15625 399.335938 C 1068.863281 389.929688 1073.554688 380.523438 1078.265625 371.117188 C 1082.496094 366.585938 1086.90625 362.472656 1091.492188 358.769531 Z M 863.980469 415.210938 C 866.625 398.136719 874.859375 384.320312 888.671875 373.761719 C 891.617188 372.585938 894.542969 372.585938 897.488281 373.761719 C 899.289062 375.613281 899.570312 377.671875 898.371094 379.933594 C 891.898438 387.578125 885.441406 395.222656 878.96875 402.867188 C 874.703125 408.019531 869.710938 412.136719 863.980469 415.210938 Z M 863.980469 415.210938 " fill-opacity="0.851" fill-rule="evenodd"/><path fill="#fefffe" d="M 119.710938 238.824219 C 124.257812 240.921875 125.726562 244.449219 124.121094 249.40625 C 113.15625 271.332031 103.164062 293.675781 94.136719 316.433594 C 75.84375 369.5625 57.914062 422.773438 40.347656 476.066406 C 41.226562 476.949219 42.109375 477.832031 42.992188 478.710938 C 49.925781 475.027344 57.277344 472.382812 65.039062 470.773438 C 95.816406 465.617188 126.386719 459.445312 156.75 452.253906 C 161.050781 453.804688 162.519531 456.742188 161.15625 461.074219 C 156.128906 464.328125 150.542969 466.386719 144.402344 467.246094 C 118.035156 472.992188 91.578125 478.285156 65.039062 483.121094 C 55.796875 485.613281 46.980469 489.144531 38.582031 493.707031 C 26.957031 497.664062 22.550781 493.839844 25.355469 482.242188 C 42.164062 433.570312 58.625 384.769531 74.738281 335.835938 C 83.65625 312.707031 93.0625 289.777344 102.957031 267.046875 C 107.230469 256.714844 112.8125 247.308594 119.710938 238.824219 Z M 119.710938 238.824219 " fill-opacity="0.835" fill-rule="evenodd"/><path fill="#fefffe" d="M 1278.441406 330.546875 C 1286.996094 329.601562 1290.820312 333.128906 1289.90625 341.128906 C 1265.566406 344.917969 1255.566406 359.03125 1259.921875 383.460938 C 1262.109375 397.039062 1264.472656 410.5625 1266.976562 424.03125 C 1294.648438 404.578125 1322.269531 385.171875 1349.871094 365.824219 C 1353.484375 366.878906 1355.53125 369.230469 1356.042969 372.878906 C 1341.386719 381.511719 1332.269531 394.449219 1328.707031 411.683594 C 1327.523438 416.976562 1327.523438 422.269531 1328.707031 427.558594 C 1333.328125 436.167969 1338.917969 436.757812 1345.460938 429.324219 C 1350.222656 422.320312 1351.703125 414.675781 1349.871094 406.394531 C 1344.878906 401.507812 1343.414062 395.921875 1345.460938 389.636719 C 1356.128906 389.175781 1366.710938 388 1377.207031 386.109375 C 1387.628906 382.367188 1398.210938 379.132812 1408.953125 376.40625 C 1415.25 376.277344 1417.3125 379.21875 1415.125 385.226562 C 1397.683594 392.707031 1379.761719 398.585938 1361.332031 402.867188 C 1366.359375 425.175781 1358.125 439.878906 1336.640625 446.960938 C 1322.234375 444.597656 1315.179688 436.074219 1315.476562 421.386719 C 1316.273438 415.042969 1317.152344 408.867188 1318.125 402.867188 C 1299.394531 415.144531 1281.757812 428.667969 1265.214844 443.433594 C 1263.644531 462.855469 1256.308594 479.609375 1243.167969 493.707031 C 1225.300781 498.785156 1217.964844 492.023438 1221.121094 473.421875 C 1227.945312 459.539062 1237.363281 447.78125 1249.339844 438.144531 C 1250.523438 435.792969 1251.6875 433.4375 1252.867188 431.085938 C 1253.574219 417.339844 1252.109375 403.816406 1248.457031 390.519531 C 1247.875 389.929688 1247.277344 389.34375 1246.695312 388.753906 C 1232.972656 394.308594 1218.863281 398.421875 1204.367188 401.101562 C 1202.128906 404.972656 1202.128906 408.792969 1204.367188 412.566406 C 1203.042969 430.84375 1193.644531 442.308594 1176.148438 446.960938 C 1166.835938 446.285156 1160.664062 441.578125 1157.628906 432.851562 C 1154.773438 406.710938 1163.292969 385.25 1183.203125 368.46875 C 1192.003906 363.90625 1195.832031 366.550781 1194.667969 376.40625 C 1187.382812 377.988281 1182.09375 382.101562 1178.792969 388.753906 C 1172.816406 398.5625 1168.988281 409.144531 1167.328125 420.503906 C 1167.367188 432.246094 1172.65625 436.070312 1183.203125 431.96875 C 1193.609375 421.742188 1194.492188 410.863281 1185.847656 399.335938 C 1184.667969 396.398438 1184.667969 393.457031 1185.847656 390.519531 C 1206.449219 389.980469 1226.148438 385.277344 1244.929688 376.40625 C 1245.988281 360.46875 1252.460938 347.238281 1264.332031 336.71875 C 1269.023438 334.113281 1273.714844 332.054688 1278.441406 330.546875 Z M 1246.695312 457.546875 C 1248.636719 459.488281 1248.917969 461.839844 1247.578125 464.601562 C 1244.894531 472.359375 1240.488281 478.828125 1234.347656 484.003906 C 1232.355469 481.226562 1232.054688 478.289062 1233.46875 475.183594 C 1236.90625 468.523438 1241.316406 462.644531 1246.695312 457.546875 Z M 1246.695312 457.546875 " fill-opacity="0.848" fill-rule="evenodd"/><path fill="#fefffe" d="M 523.589844 334.074219 C 527.679688 334.632812 530.03125 336.988281 530.644531 341.128906 C 522.328125 358.949219 514.976562 377.175781 508.601562 395.808594 C 506.644531 402.136719 505.765625 408.601562 505.953125 415.210938 C 514.523438 413.28125 522.164062 409.457031 528.882812 403.746094 C 538.289062 395.515625 547.695312 387.285156 557.101562 379.054688 C 564.449219 376.996094 567.09375 379.640625 565.039062 386.992188 C 552.632812 399.496094 539.40625 410.960938 525.355469 421.386719 C 518.84375 425.527344 511.789062 428.171875 504.191406 429.324219 C 499.9375 429.488281 496.703125 427.726562 494.492188 424.03125 C 493.929688 412.152344 494.515625 400.394531 496.253906 388.753906 C 484.257812 402.519531 471.617188 415.746094 458.335938 428.441406 C 446.476562 435.664062 439.714844 432.433594 438.054688 418.742188 C 427.644531 430.910156 415.59375 441.199219 401.898438 449.609375 C 389.074219 454.421875 379.964844 450.601562 374.5625 438.144531 C 373.878906 425.667969 374.46875 413.320312 376.324219 401.101562 C 358.03125 417.753906 337.75 431.570312 315.476562 442.554688 C 301.117188 448.777344 286.421875 450.542969 271.386719 447.84375 C 258.496094 441.03125 252.914062 430.15625 254.632812 415.210938 C 210.574219 450.238281 193.230469 440.242188 202.605469 385.226562 C 189.40625 396.363281 176.476562 407.828125 163.804688 419.621094 C 158.324219 422.507812 152.738281 425.152344 147.046875 427.558594 C 139.375 425.171875 136.140625 419.878906 137.347656 411.683594 C 138.28125 394.53125 143.277344 378.65625 152.339844 364.058594 C 157.445312 356.765625 161.855469 357.0625 165.566406 364.941406 C 156.230469 379.140625 150.9375 394.71875 149.695312 411.683594 C 151.550781 411.949219 153.3125 411.65625 154.984375 410.804688 C 176.089844 393.8125 195.488281 375 213.1875 354.359375 C 219.761719 352.113281 222.703125 354.464844 222.003906 361.414062 C 217.339844 378.300781 213.8125 395.351562 211.421875 412.566406 C 211.226562 423.558594 215.929688 426.496094 225.53125 421.386719 C 233.085938 416.773438 240.140625 411.480469 246.695312 405.511719 C 262.046875 389.574219 276.746094 373.109375 290.789062 356.121094 C 317.855469 347.914062 327.554688 357.617188 319.886719 385.226562 C 317.464844 390.625 313.644531 393.859375 308.421875 394.929688 C 306.292969 389.59375 307.171875 384.59375 311.070312 379.933594 C 314.464844 366.863281 310.054688 362.453125 297.839844 366.707031 C 277.316406 383.351562 267.617188 404.816406 268.742188 431.085938 C 273.171875 436 278.757812 438.351562 285.496094 438.144531 C 305.855469 435.015625 324.078125 427.078125 340.167969 414.332031 C 353.769531 402.488281 367.878906 391.316406 382.496094 380.816406 C 384.644531 377.910156 386.113281 374.675781 386.90625 371.117188 C 391.929688 364.273438 396.335938 364.273438 400.132812 371.117188 C 390.949219 391.96875 386.539062 413.726562 386.90625 436.378906 C 388.121094 437.890625 389.589844 439.066406 391.316406 439.90625 C 396.226562 438.332031 400.929688 436.277344 405.425781 433.734375 C 409.605469 428.960938 414.308594 424.84375 419.535156 421.386719 C 436.585938 401.984375 453.632812 382.582031 470.679688 363.179688 C 473.972656 361.441406 477.5 360.558594 481.261719 360.53125 C 487.429688 361.601562 493.308594 363.070312 498.898438 364.941406 C 506.546875 353.976562 514.777344 343.6875 523.589844 334.074219 Z M 453.042969 415.210938 C 455.695312 398.136719 463.925781 384.320312 477.734375 373.761719 C 480.675781 372.585938 483.613281 372.585938 486.554688 373.761719 C 488.347656 375.613281 488.640625 377.671875 487.4375 379.933594 C 480.96875 387.578125 474.503906 395.222656 468.035156 402.867188 C 463.773438 408.019531 458.777344 412.136719 453.042969 415.210938 Z M 453.042969 415.210938 " fill-opacity="0.849" fill-rule="evenodd"/><path fill="#fefffe" d="M 396.605469 337.601562 C 403.566406 335.964844 408.269531 338.316406 410.714844 344.65625 C 408.351562 352.929688 403.355469 355.28125 395.726562 351.710938 C 392.050781 346.734375 392.34375 342.03125 396.605469 337.601562 Z M 396.605469 337.601562 " fill-opacity="0.766" fill-rule="evenodd"/></svg>